<?xml version="1.0" encoding="UTF-8" standalone="no"?>
<svg
   id="master-artboard"
   viewBox="0 0 1400 241.52574157714844"
   version="1.1"
   x="0px"
   y="0px"
   style="enable-background:new 0 0 1400 980;"
   width="1400px"
   height="241.52574157714844px"
   sodipodi:docname="logo2.svg"
   inkscape:version="1.1 (c4e8f9e, 2021-05-24)"
   xmlns:inkscape="http://www.inkscape.org/namespaces/inkscape"
   xmlns:sodipodi="http://sodipodi.sourceforge.net/DTD/sodipodi-0.dtd"
   xmlns="http://www.w3.org/2000/svg"
   xmlns:svg="http://www.w3.org/2000/svg">
  <defs
     id="defs4783">
    <rect
       x="480.2589"
       y="45.307443"
       width="867.63754"
       height="156.31068"
       id="rect27149" />
    <rect
       x="-22.653722"
       y="-412.29773"
       width="1214.2395"
       height="224.27184"
       id="rect8739" />
  </defs>
  <sodipodi:namedview
     id="namedview4781"
     pagecolor="#ffffff"
     bordercolor="#666666"
     borderopacity="1.0"
     inkscape:pageshadow="2"
     inkscape:pageopacity="0.0"
     inkscape:pagecheckerboard="0"
     showgrid="false"
     inkscape:zoom="0.44142857"
     inkscape:cx="698.86731"
     inkscape:cy="-60.032362"
     inkscape:window-width="1348"
     inkscape:window-height="721"
     inkscape:window-x="325"
     inkscape:window-y="168"
     inkscape:window-maximized="0"
     inkscape:current-layer="master-artboard" />
  <rect
     id="ee-background"
     x="0"
     y="0"
     width="1400"
     height="241.52574157714844"
     style="fill: white; fill-opacity: 0; pointer-events: none;" />
  <g
     transform="matrix(3.500000238418579, 0, 0, 3.500000238418579, 0.00001888830774987582, 26.262847900390625)"
     id="g4778">
    <title
       id="title4762">ILOVELAMP-white-01</title>
    <g
       id="g4776">
      <path
         class="st0"
         d="M 15.902266,48.2 V 6.4 h 4.7 v 41.8 h -4.7 z"
         style="fill:#2d2d40"
         id="path4764" />
      <path
         class="st0"
         d="m 82.443044,18.947249 c 0,3.2 -1.2,6.4 -3.7,8.8 l -21,21 -21,-21 c -4.9,-4.9 -4.9,-12.8 0,-17.7 2.4,-2.3999999 5.6,-3.6999999 8.9,-3.6999999 3.2,0 6.4,1.2 8.8,3.6999999 l 3.3,3.3 3.3,-3.3 c 4.9,-4.8999999 12.8,-4.8999999 17.7,0 2.4,2.5 3.7,5.7 3.7,8.9 z"
         style="fill:#e01907"
         id="path4774" />
    </g>
    <text
       xml:space="preserve"
       transform="matrix(0.28571427,0,0,0.28571427,-5.396659e-6,-7.5036703)"
       id="text8737"
       style="fill:black;fill-opacity:1;line-height:1.25;stroke:none;font-family:sans-serif;font-style:normal;font-weight:normal;font-size:40px;white-space:pre;shape-inside:url(#rect8739)" />
  </g>
  <text
     xml:space="preserve"
     id="text27147"
     style="font-style:normal;font-weight:normal;font-size:96px;line-height:1.25;font-family:sans-serif;white-space:pre;shape-inside:url(#rect27149);fill:#000000;fill-opacity:1;stroke:none"
     transform="matrix(1.1821107,0,0,2.0810197,-228.13544,-88.593641)"><tspan
       x="480.25977"
       y="132.89035"
       id="tspan39330">A D V E N T U R E</tspan></text>
</svg>
